<?xml version="1.0" encoding="UTF-8" standalone="no"?>
<!-- Created with Inkscape (http://www.inkscape.org/) -->

<svg
   xmlns:dc="http://purl.org/dc/elements/1.1/"
   xmlns:cc="http://creativecommons.org/ns#"
   xmlns:rdf="http://www.w3.org/1999/02/22-rdf-syntax-ns#"
   xmlns:svg="http://www.w3.org/2000/svg"
   xmlns="http://www.w3.org/2000/svg"
   xmlns:sodipodi="http://sodipodi.sourceforge.net/DTD/sodipodi-0.dtd"
   xmlns:inkscape="http://www.inkscape.org/namespaces/inkscape"
   version="1.1"
   id="svg2"
   width="146.08696"
   height="439.54514"
   viewBox="0 0 146.08696 439.54514"
   sodipodi:docname="fragile_sign.svg"
   inkscape:version="0.92.3 (2405546, 2018-03-11)">
  <metadata
     id="metadata8">
    <rdf:RDF>
      <cc:Work
         rdf:about="">
        <dc:format>image/svg+xml</dc:format>
        <dc:type
           rdf:resource="http://purl.org/dc/dcmitype/StillImage" />
        <dc:title></dc:title>
      </cc:Work>
    </rdf:RDF>
  </metadata>
  <defs
     id="defs6" />
  <sodipodi:namedview
     pagecolor="#ffffff"
     bordercolor="#666666"
     borderopacity="1"
     objecttolerance="10"
     gridtolerance="10"
     guidetolerance="10"
     inkscape:pageopacity="0"
     inkscape:pageshadow="2"
     inkscape:window-width="1920"
     inkscape:window-height="1136"
     id="namedview4"
     showgrid="false"
     inkscape:zoom="1.5186354"
     inkscape:cx="187.27834"
     inkscape:cy="215.86422"
     inkscape:window-x="0"
     inkscape:window-y="27"
     inkscape:window-maximized="1"
     inkscape:current-layer="svg2" />
  <path
     style="fill:#000000;stroke-width:0.32107022"
     d="M 1.1194336e-6,370.83611 V 302.12708 H 73.043481 146.08696 v 68.70903 68.70903 H 73.043481 1.1194336e-6 Z M 139.98663,370.99665 V 308.22742 H 73.043481 6.1003411 v 62.76923 62.76923 H 73.043481 139.98663 Z m -90.541809,37.40683 v -3.53392 h 9.1505 9.15051 v -13.93644 -13.93641 l -1.68562,-0.22501 c -3.80864,-0.50838 -9.92098,-2.90491 -13.88629,-5.44451 -2.99523,-1.91833 -6.62037,-5.06617 -8.97856,-7.79642 -3.70773,-4.29274 -3.92702,-3.02991 2.04879,-11.79869 2.85183,-4.1847 5.21647,-7.75651 5.25478,-7.93737 0.0383,-0.18083 -0.82322,-0.63604 -1.9145,-1.0116 -1.09127,-0.37552 -2.07559,-0.77612 -2.18738,-0.89023 -0.11178,-0.11411 0.82931,-1.88401 2.09132,-3.93311 l 2.29457,-3.72566 h 31.44176 31.441759 l -0.19072,1.36454 c -1.68178,12.03327 -5.8513,21.39118 -12.82022,28.77316 -6.101489,6.46315 -12.616849,10.29101 -20.548489,12.0725 l -3.2107,0.72112 -0.0837,13.84715 -0.0837,13.84712 9.23417,0.0852 9.23418,0.0852 v 3.37124 3.37124 l -22.87626,0.0824 -22.87625,0.0824 z m -13.62284,-56.21959 c -2.36597,-5.00041 -4.12755,-11.11741 -4.77624,-16.58524 l -0.16189,-1.36454 h 7.19353 c 3.95644,0 7.19353,0.0638 7.19353,0.14188 0,0.078 -1.31507,2.32682 -2.92238,4.99733 -1.60731,2.67053 -2.87153,4.89892 -2.80937,4.95196 0.0622,0.0531 0.90767,0.35045 1.87891,0.66086 0.97123,0.31041 1.87533,0.66326 2.00911,0.78418 0.1884,0.17026 -5.14264,8.4 -5.99067,9.24801 -0.10208,0.10207 -0.82862,-1.17342 -1.61453,-2.83444 z M 1.1194336e-6,219.93311 V 151.22408 H 73.043481 146.08696 v 68.70903 68.70902 H 73.043481 1.1194336e-6 Z M 139.98663,219.93311 V 157.00334 H 73.043481 6.1003411 v 62.71572 c 0,34.49364 0.0963,62.81204 0.21405,62.92976 0.11772,0.11773 30.2421399,0.21405 66.9431399,0.21405 h 66.729099 z m -97.605349,42.59283 c 0,-4.41425 -1.22608,-6.76509 -8.1013,-15.53312 -2.29743,-2.92993 -4.84594,-6.35209 -5.66335,-7.6048 l -1.48619,-2.27766 V 218.1105 c 0,-18.68893 0.0108,-19.01438 0.66198,-19.88652 2.30666,-3.08953 5.79169,-2.98479 7.68585,0.23098 0.59986,1.01842 0.6527,1.82993 0.80267,12.32764 0.19436,13.60483 -0.48826,11.57331 7.17422,21.35117 4.1603,5.30884 4.63899,5.77927 5.88081,5.77927 1.08483,0 1.92767,-0.90704 1.6106,-1.7333 -0.0842,-0.21936 -1.75853,-2.6593 -3.72079,-5.42209 -3.94399,-5.553 -4.20236,-6.053 -4.20236,-8.13229 0,-2.87949 1.7476,-4.54142 4.39408,-4.17868 2.20635,0.30241 2.99199,0.88505 6.85507,5.08375 6.70447,7.28695 10.31544,11.91269 12.19435,15.62122 1.81671,3.58577 1.91306,4.36655 1.91723,15.53731 l 0.004,10.19398 h -13.00333 -13.00334 z m 34.99851,-7.19484 c 9.6e-4,-5.25351 0.14199,-10.41873 0.31326,-11.47826 0.63004,-3.89759 4.09432,-9.37731 10.48927,-16.5917 5.75971,-6.49774 7.5174,-8.14565 9.16941,-8.59674 2.029628,-0.55419 3.550499,-0.22689 4.568719,0.98319 0.69411,0.8249 0.82203,1.29585 0.82203,3.02639 0,2.23728 0.16243,1.94833 -6.275569,11.16378 -0.96315,1.37867 -1.75118,2.63256 -1.75118,2.78643 0,1.07823 2.2595,1.69082 3.27349,0.88751 1.489508,-1.18002 10.118159,-12.79127 11.035099,-14.8495 0.15734,-0.35318 0.36147,-5.7099 0.45362,-11.90384 l 0.16755,-11.26171 0.85429,-1.29012 c 0.83774,-1.26513 2.53421,-2.35369 3.66811,-2.35369 1.22668,0 3.22963,1.2915 3.92685,2.53203 0.6986,1.24299 0.70124,1.3179 0.69824,19.82606 l -0.003,18.57836 -0.92417,1.60535 c -0.5083,0.88295 -2.09921,3.12241 -3.53536,4.97659 -6.61823,8.54462 -8.35601,10.96272 -9.45011,13.14969 -1.10152,2.20155 -1.17476,2.53547 -1.17476,5.35499 v 3.00703 H 90.541811 77.377931 l 0.002,-9.55184 z m -15.18452,-39.15375 -7.61332,-5.36111 v -8.62733 -8.62733 l 2.32775,1.64767 c 1.28027,0.90621 4.74261,3.33613 7.69408,5.39981 l 5.36632,3.75214 0.0116,8.58863 c 0.006,4.72374 -0.03,8.58863 -0.0808,8.58863 -0.0508,0 -3.51836,-2.4125 -7.70569,-5.36111 z m 13.65234,-3.20836 0.0855,-8.56947 7.62541,-5.37971 7.62542,-5.37972 v 8.62671 8.62671 l -7.56267,5.32248 c -4.15947,2.92735 -7.62939,5.32247 -7.71093,5.32247 -0.0815,0 -0.10978,-3.85627 -0.0627,-8.56947 z m -11.95072,-18.24193 c -4.85404,-3.42948 -8.86906,-6.366 -8.92227,-6.52561 -0.12025,-0.36078 17.48091,-12.75026 18.04273,-12.7003 0.43798,0.0389 18.13786,12.37784 18.14043,12.646 0.002,0.18281 -17.70447,12.60651 -18.14689,12.73291 -0.15866,0.0453 -4.25996,-2.72352 -9.114,-6.153 z M 1.1194336e-6,68.869559 V -4.4509765e-6 H 73.043481 146.08696 V 68.869559 137.73913 H 73.043481 1.1194336e-6 Z M 139.98663,68.869559 V 6.1003301 H 73.043481 6.1003411 V 68.869559 131.63879 H 73.043481 139.98663 Z M 27.361921,111.3311 l 0.0896,-4.25418 h 45.91305 45.913029 l 0.0896,4.25418 0.0896,4.25418 H 73.364551 27.272341 Z m 15.6615,-36.682277 V 46.555178 h -3.18606 -3.18606 l 6.71522,-10.515049 c 3.69337,-5.783278 6.85476,-10.515051 7.0253,-10.515051 0.27884,0 13.50116,20.420109 13.50116,20.850753 0,0.09864 -1.37257,0.179347 -3.05016,0.179347 h -3.05017 v 28.093645 28.093647 h -7.38462 -7.38461 z m 45.91304,0 V 46.555178 h -3.05017 c -1.67759,0 -3.05016,-0.07977 -3.05016,-0.177266 0,-0.322168 13.31377,-21.013369 13.52107,-21.013369 0.11166,0 3.247928,4.767894 6.969499,10.595318 l 6.76649,10.595317 h -3.19375 -3.19375 v 28.093645 28.093647 h -7.384609 -7.38462 z"
     id="path12"
     inkscape:connector-curvature="0" />
</svg>
