<?xml version="1.0" encoding="UTF-8" standalone="no"?>
<svg
   xmlns:dc="http://purl.org/dc/elements/1.1/"
   xmlns:cc="http://creativecommons.org/ns#"
   xmlns:rdf="http://www.w3.org/1999/02/22-rdf-syntax-ns#"
   xmlns:svg="http://www.w3.org/2000/svg"
   xmlns="http://www.w3.org/2000/svg"
   xmlns:sodipodi="http://sodipodi.sourceforge.net/DTD/sodipodi-0.dtd"
   xmlns:inkscape="http://www.inkscape.org/namespaces/inkscape"
   id="Layer_1"
   data-name="Layer 1"
   viewBox="0 0 71.860002 53.763775"
   version="1.1"
   sodipodi:docname="bl_logo-min.svg"
   width="71.860001"
   height="53.763775"
   inkscape:version="0.92.3 (2405546, 2018-03-11)">
  <metadata
     id="metadata132">
    <rdf:RDF>
      <cc:Work
         rdf:about="">
        <dc:format>image/svg+xml</dc:format>
        <dc:type
           rdf:resource="http://purl.org/dc/dcmitype/StillImage" />
        <dc:title>cls_horiz_colour</dc:title>
      </cc:Work>
    </rdf:RDF>
  </metadata>
  <sodipodi:namedview
     pagecolor="#ffffff"
     bordercolor="#666666"
     borderopacity="1"
     objecttolerance="10"
     gridtolerance="10"
     guidetolerance="10"
     inkscape:pageopacity="0"
     inkscape:pageshadow="2"
     inkscape:window-width="640"
     inkscape:window-height="480"
     id="namedview130"
     showgrid="false"
     fit-margin-top="0"
     fit-margin-left="0"
     fit-margin-right="0"
     fit-margin-bottom="0"
     inkscape:zoom="1.6194703"
     inkscape:cx="110.32805"
     inkscape:cy="26.893774"
     inkscape:window-x="0"
     inkscape:window-y="27"
     inkscape:window-maximized="0"
     inkscape:current-layer="Layer_1" />
  <defs
     id="defs9">
    <style
       id="style2">.cls-1{fill:url(#linear-gradient);}.cls-2{fill:#231f20;}</style>
    <linearGradient
       id="linear-gradient"
       x1="322.01999"
       y1="291.42999"
       x2="322.01999"
       y2="327.95999"
       gradientUnits="userSpaceOnUse"
       gradientTransform="translate(-286.09,-278.97)">
      <stop
         offset="0"
         stop-color="#0079c1"
         id="stop4" />
      <stop
         offset="1"
         stop-color="#4f2683"
         id="stop6" />
    </linearGradient>
  </defs>
  <title
     id="title11">cls_horiz_colour</title>
  <path
     class="cls-1"
     d="m 69.71,31.03 c -1.56,-0.06 -11.14,2 -19,3.93 l -1,0.26 a 148.66,148.66 0 0 0 -20.63,6.16 97.25,97.25 0 0 0 -13,-7 l -0.14,-0.05 c 3.77,1.21 8.18,2.13 10.79,2.79 l 1.76,0.43 0.6,0.15 -0.6,-0.37 v 0 H 28.43 C 27.89,37 27.06,36.5 26.04,35.9 c -2.21,-1.29 -5.23,-3.12 -8.22,-4.56 2,0.7 4.51,1 6.7,1.69 1,0.31 2,0.59 3,0.86 C 27.32,33.16 27.1,32.41 26.87,31.67 26.36,30 26.1,28.26 25.52,26.78 l -0.26,-0.61 a 65.77,65.77 0 0 0 4.32,7 50.49,50.49 0 0 0 -1.59,-9.84 l 0.19,0.48 c 0.33,0.83 1.44,2.31 2.55,4.52 0.49,1 0.85,1.65 1.08,2.07 0.45,-1 0.85,-2.18 1.37,-3.28 1.27,-2.66 2.5,-5.38 3.15,-7.11 -0.95,3.34 -1.71,7 -2.36,9.82 -0.15,0.67 -0.7,3.3 -0.66,3.34 a 21.17,21.17 0 0 0 1.86,-3.22 c 1.39,-3.19 3.31,-7.38 4.64,-11 -0.18,0.5 -0.35,1 -0.51,1.48 -0.72,2.14 -1.25,4.8 -1.86,7.1 -0.29,1.11 -0.56,2.2 -0.81,3.23 0.8,-0.67 1.89,-1.51 2.83,-2.26 1.49,-1.2 3.54,-2.81 5.08,-4.2 -3.09,3.32 -7.2,8.21 -7.42,8.7 0.29,-0.12 5.06,-3.51 8.7,-6.4 -1.55,1.47 -3.06,3.38 -4.65,5 -0.71,0.75 -1.42,1.49 -2.1,2.22 1.12,-0.26 2.32,-0.55 3.56,-0.86 2.59,-0.64 5.7,-1.13 8.2,-1.85 -4,1.45 -8.41,3.38 -11.6,4.72 -1.42,0.6 -2.57,1.1 -3.32,1.43 h -0.09 v 0 a 7.47,7.47 0 0 0 -0.72,0.32 l -0.12,0.05 h 0.12 0.14 l 0.44,-0.09 2,-0.43 c 3.77,-0.82 10.7,-2.41 15.92,-4.09 7.55,-2.42 18.26,-7.3 18.26,-7.3 0,0 -9.94,1.89 -17.53,4.21 7.06,-2.61 15,-6.62 15,-6.62 0,0 -10.71,2.1 -18.4,4.57 -1.37,0.44 -3,1.13 -4.49,1.67 0.47,-0.43 1.43,-1.17 1.87,-1.59 6.12,-5.8 13.43,-14.65 13.43,-14.65 0,0 -5.69,4.29 -11.15,9 5.7,-5.73 11.77,-13.26 11.77,-13.26 0,0 -8.15,6.15 -14.31,11.75 5.24,-5.49 10.27,-11.89 10.27,-11.89 0,0 -10.15,7.07 -15.82,13.49 -0.43,0.49 -1,0.91 -1.44,1.39 0.43,-1.14 1.08,-2.44 1.43,-3.48 A 136.74,136.74 0 0 0 46.58,3.03 c 0,0 -4.21,8.69 -6.76,15.78 0.18,-0.5 0.36,-1 0.51,-1.46 A 138.64,138.64 0 0 0 44.41,0 c 0,0 -4.53,9.42 -7.05,16.64 A 123.88,123.88 0 0 0 40.27,2.27 c 0,0 -4.75,10.1 -7.19,17.41 -0.39,1.16 -0.73,2.59 -1.1,3.84 -0.15,-0.4 -0.32,-1.2 -0.47,-1.58 a 95.33,95.33 0 0 0 -7,-13.08 88.51,88.51 0 0 0 3,13.08 A 95.07,95.07 0 0 0 20.43,9 a 93.68,93.68 0 0 0 3.6,14.42 109.13,109.13 0 0 0 -5.8,-10.12 105.08,105.08 0 0 0 4.13,15 c 0.17,0.42 0.35,0.85 0.54,1.28 -1.13,-0.54 -2.27,-1.12 -3.35,-1.56 A 130.75,130.75 0 0 0 4.09,23.34 84.63,84.63 0 0 0 14.92,30.04 125.93,125.93 0 0 0 0,25.74 84.35,84.35 0 0 0 13,33.23 C 7.24,31.23 0.5,29.75 0.5,29.75 a 100.71,100.71 0 0 0 13.41,7.22 133.61,133.61 0 0 0 14.67,4.58 c -8.64,3.42 -14,7 -13,9.34 1.63,4 19,3.88 38.68,-0.71 3.4,-0.79 3.6,-1.4 1.5,-0.93 -19.49,4.41 -31.33,4.53 -32.73,1.36 -1.24,-2.76 10.03,-9.48 46.68,-19.58 z"
     id="path13"
     inkscape:connector-curvature="0"
     style="fill:url(#linear-gradient)" />
</svg>
