<svg id="Layer_1" data-name="Layer 1" xmlns="http://www.w3.org/2000/svg" xmlns:xlink="http://www.w3.org/1999/xlink" viewBox="0 0 218.59 53.82"><defs><style>.cls-1{fill:url(#linear-gradient);}.cls-2{fill:#231f20;}</style><linearGradient id="linear-gradient" x1="322.02" y1="291.43" x2="322.02" y2="327.96" gradientUnits="userSpaceOnUse"><stop offset="0" stop-color="#0079c1"/><stop offset="1" stop-color="#4f2683"/></linearGradient></defs><title>cls_horiz_colour</title><path class="cls-1" d="M355.8,310c-1.56-.06-11.14,2-19,3.93l-1,.26a148.66,148.66,0,0,0-20.63,6.16,97.25,97.25,0,0,0-13-7l-.14-.05c3.77,1.21,8.18,2.13,10.79,2.79l1.76.43.6.15-.6-.37h0l-.06,0c-.54-.33-1.37-.83-2.39-1.43-2.21-1.29-5.23-3.12-8.22-4.56,2,.7,4.51,1,6.7,1.69,1,.31,2,.59,3,.86-.2-.73-.42-1.48-.65-2.22-.51-1.67-.77-3.41-1.35-4.89l-.26-.61a65.77,65.77,0,0,0,4.32,7,50.49,50.49,0,0,0-1.59-9.84l.19.48c.33.83,1.44,2.31,2.55,4.52.49,1,.85,1.65,1.08,2.07.45-1,.85-2.18,1.37-3.28,1.27-2.66,2.5-5.38,3.15-7.11-.95,3.34-1.71,7-2.36,9.82-.15.67-.7,3.3-.66,3.34a21.17,21.17,0,0,0,1.86-3.22c1.39-3.19,3.31-7.38,4.64-11-.18.5-.35,1-.51,1.48-.72,2.14-1.25,4.8-1.86,7.1-.29,1.11-.56,2.2-.81,3.23.8-.67,1.89-1.51,2.83-2.26,1.49-1.2,3.54-2.81,5.08-4.2-3.09,3.32-7.2,8.21-7.42,8.7.29-.12,5.06-3.51,8.7-6.4-1.55,1.47-3.06,3.38-4.65,5-.71.75-1.42,1.49-2.1,2.22,1.12-.26,2.32-.55,3.56-.86,2.59-.64,5.7-1.13,8.2-1.85-4,1.45-8.41,3.38-11.6,4.72-1.42.6-2.57,1.1-3.32,1.43l-.09,0h0a7.47,7.47,0,0,0-.72.32l-.12.05.12,0,.14,0,.44-.09,2-.43c3.77-.82,10.7-2.41,15.92-4.09,7.55-2.42,18.26-7.3,18.26-7.3s-9.94,1.89-17.53,4.21c7.06-2.61,15-6.62,15-6.62s-10.71,2.1-18.4,4.57c-1.37.44-3,1.13-4.49,1.67.47-.43,1.43-1.17,1.87-1.59,6.12-5.8,13.43-14.65,13.43-14.65s-5.69,4.29-11.15,9c5.7-5.73,11.77-13.26,11.77-13.26s-8.15,6.15-14.31,11.75c5.24-5.49,10.27-11.89,10.27-11.89s-10.15,7.07-15.82,13.49c-.43.49-1,.91-1.44,1.39.43-1.14,1.08-2.44,1.43-3.48A136.74,136.74,0,0,0,332.67,282s-4.21,8.69-6.76,15.78c.18-.5.36-1,.51-1.46a138.64,138.64,0,0,0,4.08-17.35s-4.53,9.42-7.05,16.64a123.88,123.88,0,0,0,2.91-14.37s-4.75,10.1-7.19,17.41c-.39,1.16-.73,2.59-1.1,3.84-.15-.4-.32-1.2-.47-1.58a95.33,95.33,0,0,0-7-13.08,88.51,88.51,0,0,0,3,13.08,95.07,95.07,0,0,0-7.08-12.94,93.68,93.68,0,0,0,3.6,14.42,109.13,109.13,0,0,0-5.8-10.12,105.08,105.08,0,0,0,4.13,15c.17.42.35.85.54,1.28-1.13-.54-2.27-1.12-3.35-1.56a130.75,130.75,0,0,0-15.46-4.68,84.63,84.63,0,0,0,10.83,6.7,125.93,125.93,0,0,0-14.92-4.3,84.35,84.35,0,0,0,13,7.49c-5.76-2-12.5-3.48-12.5-3.48A100.71,100.71,0,0,0,300,315.94a133.61,133.61,0,0,0,14.67,4.58c-8.64,3.42-14,7-13,9.34,1.63,4,19,3.88,38.68-.71,3.4-.79,3.6-1.4,1.5-.93-19.49,4.41-31.33,4.53-32.73,1.36C307.88,326.82,319.15,320.1,355.8,310Z" transform="translate(-286.09 -278.93)"/><path class="cls-2" d="M373.06,303a3.44,3.44,0,0,1-2.65-1.05,4.1,4.1,0,0,1-1-2.9,3.9,3.9,0,0,1,1-2.82,3.54,3.54,0,0,1,2.68-1.06,4,4,0,0,1,2.26.62l-.44,1.07a3.39,3.39,0,0,0-1.79-.55,2,2,0,0,0-1.66.76,3.76,3.76,0,0,0,0,4.08,2,2,0,0,0,1.68.72,4.16,4.16,0,0,0,1.9-.48l.19,1.1A4.22,4.22,0,0,1,373.06,303Z" transform="translate(-286.09 -278.93)"/><path class="cls-2" d="M377.72,303a1.86,1.86,0,0,1-1.29-.44,1.61,1.61,0,0,1-.49-1.27,1.53,1.53,0,0,1,.58-1.32,3.58,3.58,0,0,1,1.76-.54l.35,0,.42,0,.37,0V299a1,1,0,0,0-.24-.76,1,1,0,0,0-.73-.24,5,5,0,0,0-1.72.39l-.17-.47-.17-.47a5.5,5.5,0,0,1,2.19-.43,2.37,2.37,0,0,1,1.68.5,2.17,2.17,0,0,1,.53,1.63v3.73h-1l-.11-.35c-.07-.22-.11-.33-.11-.35a3.24,3.24,0,0,1-.84.61A2.29,2.29,0,0,1,377.72,303Zm.37-1a1.49,1.49,0,0,0,.83-.23,1.33,1.33,0,0,0,.5-.55v-1.1l-.27,0-.28,0a2.84,2.84,0,0,0-1.21.31.84.84,0,0,0-.39.77.72.72,0,0,0,.21.56A.87.87,0,0,0,378.09,302.07Z" transform="translate(-286.09 -278.93)"/><path class="cls-2" d="M382,302.93v-5.72h1.1l.15.72a2.71,2.71,0,0,1,1.94-.86,1.87,1.87,0,0,1,1.5.57,2.48,2.48,0,0,1,.5,1.67v3.62h-1.37v-3.45a2,2,0,0,0-.22-1,.86.86,0,0,0-.79-.34,1.51,1.51,0,0,0-.81.23,1.38,1.38,0,0,0-.53.57,5.71,5.71,0,0,0-.1,1.25v2.78Z" transform="translate(-286.09 -278.93)"/><path class="cls-2" d="M389.87,303a1.86,1.86,0,0,1-1.29-.44,1.61,1.61,0,0,1-.49-1.27,1.53,1.53,0,0,1,.58-1.32,3.58,3.58,0,0,1,1.76-.54l.35,0,.42,0,.37,0V299a1,1,0,0,0-.24-.76,1,1,0,0,0-.73-.24,5,5,0,0,0-1.72.39l-.17-.47-.17-.47a5.49,5.49,0,0,1,2.19-.43,2.37,2.37,0,0,1,1.68.5,2.17,2.17,0,0,1,.53,1.63v3.73h-1l-.12-.35q-.11-.33-.11-.35a3.25,3.25,0,0,1-.84.61A2.29,2.29,0,0,1,389.87,303Zm.37-1a1.49,1.49,0,0,0,.82-.23,1.34,1.34,0,0,0,.5-.55v-1.1l-.27,0-.28,0a2.85,2.85,0,0,0-1.21.31.84.84,0,0,0-.38.77.72.72,0,0,0,.21.56A.87.87,0,0,0,390.24,302.07Z" transform="translate(-286.09 -278.93)"/><path class="cls-2" d="M396.27,303a2.11,2.11,0,0,1-1.76-.82,3.48,3.48,0,0,1-.64-2.2,3.36,3.36,0,0,1,.64-2.14,2.11,2.11,0,0,1,1.76-.81,1.83,1.83,0,0,1,1.72.86,9.58,9.58,0,0,1-.05-1V295.1l1.36-.09v7.92h-1.18l-.15-.78-.16.24a1.94,1.94,0,0,1-.22.23,1.26,1.26,0,0,1-.32.21,2.08,2.08,0,0,1-.43.14A2.51,2.51,0,0,1,396.27,303Zm.32-1q1.37,0,1.39-1.87a2.64,2.64,0,0,0-.35-1.54,1.22,1.22,0,0,0-1.06-.48,1.16,1.16,0,0,0-1,.49,2.4,2.4,0,0,0-.37,1.45,2.43,2.43,0,0,0,.37,1.45A1.17,1.17,0,0,0,396.6,302Z" transform="translate(-286.09 -278.93)"/><path class="cls-2" d="M400.57,296.37v-1.16h1.37v1.16Zm0,6.55v-5.72h1.36v5.72Z" transform="translate(-286.09 -278.93)"/><path class="cls-2" d="M404.7,303a1.86,1.86,0,0,1-1.29-.44,1.61,1.61,0,0,1-.49-1.27,1.53,1.53,0,0,1,.58-1.32,3.58,3.58,0,0,1,1.76-.54l.35,0,.42,0,.37,0V299a1,1,0,0,0-.24-.76,1,1,0,0,0-.73-.24,5,5,0,0,0-1.72.39l-.17-.47-.17-.47a5.5,5.5,0,0,1,2.19-.43,2.37,2.37,0,0,1,1.68.5,2.17,2.17,0,0,1,.53,1.63v3.73h-1l-.11-.35c-.07-.22-.11-.33-.11-.35a3.24,3.24,0,0,1-.84.61A2.28,2.28,0,0,1,404.7,303Zm.37-1a1.49,1.49,0,0,0,.83-.23,1.34,1.34,0,0,0,.5-.55v-1.1l-.27,0-.28,0a2.85,2.85,0,0,0-1.21.31.84.84,0,0,0-.38.77.72.72,0,0,0,.21.56A.86.86,0,0,0,405.07,302.07Z" transform="translate(-286.09 -278.93)"/><path class="cls-2" d="M409,302.93v-5.72h1.1l.15.72a2.7,2.7,0,0,1,1.94-.86,1.87,1.87,0,0,1,1.5.57,2.48,2.48,0,0,1,.5,1.67v3.62h-1.37v-3.45a2,2,0,0,0-.22-1,.86.86,0,0,0-.79-.34,1.51,1.51,0,0,0-.81.23,1.38,1.38,0,0,0-.54.57,5.71,5.71,0,0,0-.1,1.25v2.78Z" transform="translate(-286.09 -278.93)"/><path class="cls-2" d="M369.73,314.47v-7.62h1.41v6.5h3.19l0,1.13Z" transform="translate(-286.09 -278.93)"/><path class="cls-2" d="M375,307.92v-1.16h1.37v1.16Zm0,6.55v-5.72h1.36v5.72Z" transform="translate(-286.09 -278.93)"/><path class="cls-2" d="M378.81,317l-.08-1.1h.69a3.19,3.19,0,0,0,1.68-.32,1.31,1.31,0,0,0,.48-1.17c0-.23,0-.49,0-.76a2.48,2.48,0,0,1-.26.31,1.92,1.92,0,0,1-.31.24,1.36,1.36,0,0,1-.44.18,2.53,2.53,0,0,1-.59.06,2.4,2.4,0,0,1-1.87-.82,3,3,0,0,1-.73-2.11,3.66,3.66,0,0,1,.2-1.25,2.56,2.56,0,0,1,.55-.93,2.4,2.4,0,0,1,.8-.56,2.44,2.44,0,0,1,1-.2,1.92,1.92,0,0,1,1.71.84l.09-.7h1.22v5.31a6.42,6.42,0,0,1,0,.77,3.42,3.42,0,0,1-.15.66,1.89,1.89,0,0,1-.7,1,2.24,2.24,0,0,1-.6.31,4.2,4.2,0,0,1-.8.19,7.45,7.45,0,0,1-1,.06Zm1.37-3.51q1.41,0,1.43-1.89v-.2a2.22,2.22,0,0,0-.35-1.31,1.19,1.19,0,0,0-1-.47,1.33,1.33,0,0,0-1.13.51,2.24,2.24,0,0,0-.38,1.38,2.43,2.43,0,0,0,.39,1.41A1.22,1.22,0,0,0,380.18,313.52Z" transform="translate(-286.09 -278.93)"/><path class="cls-2" d="M384.1,314.47v-7.83l1.36-.09v1.65c0,.08,0,.3,0,.66s0,.55,0,.55a2.27,2.27,0,0,1,1.83-.81,2,2,0,0,1,1.49.55,2.35,2.35,0,0,1,.53,1.69v3.62h-1.36V311a1.86,1.86,0,0,0-.22-1,.85.85,0,0,0-.76-.33,1.44,1.44,0,0,0-.81.23,1.46,1.46,0,0,0-.53.59,5.12,5.12,0,0,0-.12,1.25v2.75Z" transform="translate(-286.09 -278.93)"/><path class="cls-2" d="M392.75,314.55a2.88,2.88,0,0,1-1-.14,1.25,1.25,0,0,1-.61-.43,1.86,1.86,0,0,1-.31-.7,4.62,4.62,0,0,1-.09-1v-2.7h-.94l.05-.74,1-.09.44-1.55h.83v1.55h1.42v.83h-1.42v2.73a1.71,1.71,0,0,0,.19.93.78.78,0,0,0,.69.28,4.26,4.26,0,0,0,.63-.05l0,1-.13,0-.22,0-.27,0Z" transform="translate(-286.09 -278.93)"/><path class="cls-2" d="M371.87,326.12a4.83,4.83,0,0,1-2.47-.64l.34-1.12a5.13,5.13,0,0,0,1.06.44,4,4,0,0,0,1.12.17,1.54,1.54,0,0,0,1-.29,1,1,0,0,0,.34-.83c0-.48-.32-.81-1-1l-.38-.11-.59-.18-.39-.13a2,2,0,0,1-1.54-2,1.89,1.89,0,0,1,.74-1.6,3.13,3.13,0,0,1,2-.56,4.74,4.74,0,0,1,2.38.57l-.43,1a4.65,4.65,0,0,0-1.89-.46,1.69,1.69,0,0,0-.95.22.88.88,0,0,0-.34.74.8.8,0,0,0,.63.83l.61.2.63.2a3.39,3.39,0,0,1,1.5.85,2.08,2.08,0,0,1,.45,1.42,2,2,0,0,1-.77,1.67A3.36,3.36,0,0,1,371.87,326.12Z" transform="translate(-286.09 -278.93)"/><path class="cls-2" d="M378.09,326.13a2.53,2.53,0,0,1-2-.82,3.61,3.61,0,0,1,0-4.35,2.64,2.64,0,0,1,2.06-.8,2.55,2.55,0,0,1,2,.81,3.6,3.6,0,0,1,0,4.35A2.64,2.64,0,0,1,378.09,326.13Zm0-1a1.18,1.18,0,0,0,1-.5,3.19,3.19,0,0,0,0-2.9,1.34,1.34,0,0,0-2.1,0,2.53,2.53,0,0,0-.35,1.46,2.49,2.49,0,0,0,.35,1.44A1.2,1.2,0,0,0,378.12,325.09Z" transform="translate(-286.09 -278.93)"/><path class="cls-2" d="M386,325.57a3.17,3.17,0,0,1-3.59,0,2,2,0,0,1-.68-1.64V320.3h1.37v3.58a1.33,1.33,0,0,0,.27.93,1.12,1.12,0,0,0,.85.29,1.09,1.09,0,0,0,.84-.29,1.35,1.35,0,0,0,.26-.93V320.3h1.36v3.64A2,2,0,0,1,386,325.57Z" transform="translate(-286.09 -278.93)"/><path class="cls-2" d="M387.73,326V320.3h1.15l.18.88a1.81,1.81,0,0,1,1.63-.9l.36,0,0,1.14a3,3,0,0,0-.43,0,1.47,1.47,0,0,0-1.13.4,1.57,1.57,0,0,0-.37,1.11V326Z" transform="translate(-286.09 -278.93)"/><path class="cls-2" d="M394.17,326.13a2.66,2.66,0,0,1-2-.78,3.14,3.14,0,0,1-.73-2.23,3,3,0,0,1,.77-2.18,2.72,2.72,0,0,1,2-.77,3.13,3.13,0,0,1,1.7.43l-.32,1a2.88,2.88,0,0,0-1.32-.37,1.32,1.32,0,0,0-1.09.49,2.26,2.26,0,0,0-.4,1.44,2.31,2.31,0,0,0,.39,1.46,1.33,1.33,0,0,0,1.11.5,2.65,2.65,0,0,0,1.44-.44l.13,1a2.56,2.56,0,0,1-.74.34A3.6,3.6,0,0,1,394.17,326.13Z" transform="translate(-286.09 -278.93)"/><path class="cls-2" d="M399.35,326.13a2.85,2.85,0,0,1-2.15-.79,3,3,0,0,1-.77-2.2,3.13,3.13,0,0,1,.72-2.17,2.52,2.52,0,0,1,2-.81,2.32,2.32,0,0,1,1.83.74,2.85,2.85,0,0,1,.65,2c0,.06,0,.16,0,.29s0,.23,0,.29h-3.8a1.8,1.8,0,0,0,.44,1.24,1.52,1.52,0,0,0,1.15.44,3.61,3.61,0,0,0,1.8-.49l.19,1A3.8,3.8,0,0,1,399.35,326.13Zm-1.51-3.55h2.5a1.62,1.62,0,0,0-.32-1.07,1.09,1.09,0,0,0-.88-.38,1.21,1.21,0,0,0-.89.36A1.66,1.66,0,0,0,397.84,322.58Z" transform="translate(-286.09 -278.93)"/><path class="cls-2" d="M427.85,303a3.44,3.44,0,0,1-2.65-1.05,4.09,4.09,0,0,1-1-2.9,3.91,3.91,0,0,1,1-2.82,3.55,3.55,0,0,1,2.68-1.06,4,4,0,0,1,2.26.62l-.44,1.07a3.39,3.39,0,0,0-1.79-.55,2,2,0,0,0-1.66.76,3.75,3.75,0,0,0,0,4.08,2,2,0,0,0,1.68.72,4.17,4.17,0,0,0,1.9-.48l.19,1.1A4.22,4.22,0,0,1,427.85,303Z" transform="translate(-286.09 -278.93)"/><path class="cls-2" d="M433.65,303a2.85,2.85,0,0,1-2.15-.79,3,3,0,0,1-.77-2.19,3.13,3.13,0,0,1,.72-2.17,2.53,2.53,0,0,1,2-.81,2.32,2.32,0,0,1,1.83.74,2.86,2.86,0,0,1,.65,2c0,.06,0,.15,0,.29s0,.23,0,.29h-3.8a1.8,1.8,0,0,0,.44,1.24,1.52,1.52,0,0,0,1.15.44,3.6,3.6,0,0,0,1.8-.49l.19,1A3.81,3.81,0,0,1,433.65,303Zm-1.51-3.55h2.5a1.61,1.61,0,0,0-.32-1.07,1.09,1.09,0,0,0-.88-.37,1.2,1.2,0,0,0-.89.36A1.64,1.64,0,0,0,432.14,299.49Z" transform="translate(-286.09 -278.93)"/><path class="cls-2" d="M436.87,302.93v-5.72H438l.15.72a2.71,2.71,0,0,1,1.94-.86,1.88,1.88,0,0,1,1.5.57,2.49,2.49,0,0,1,.5,1.67v3.62h-1.37v-3.45a2,2,0,0,0-.22-1,.86.86,0,0,0-.79-.34,1.52,1.52,0,0,0-.81.23,1.39,1.39,0,0,0-.53.57,5.76,5.76,0,0,0-.1,1.25v2.78Z" transform="translate(-286.09 -278.93)"/><path class="cls-2" d="M445.52,303a2.93,2.93,0,0,1-1-.14,1.25,1.25,0,0,1-.61-.43,1.88,1.88,0,0,1-.31-.7,4.57,4.57,0,0,1-.09-1V298h-.94l.05-.74,1-.09.44-1.55h.83v1.56h1.42V298h-1.42v2.73a1.7,1.7,0,0,0,.19.93.78.78,0,0,0,.69.28,4.25,4.25,0,0,0,.63-.05l0,1-.13,0-.22,0-.27,0Z" transform="translate(-286.09 -278.93)"/><path class="cls-2" d="M447.26,302.93v-5.72h1.15l.18.87a1.81,1.81,0,0,1,1.63-.9l.37,0,0,1.14a3,3,0,0,0-.43,0,1.46,1.46,0,0,0-1.12.4,1.57,1.57,0,0,0-.37,1.11v3.1Z" transform="translate(-286.09 -278.93)"/><path class="cls-2" d="M453.84,303a2.85,2.85,0,0,1-2.15-.79,3,3,0,0,1-.77-2.19,3.13,3.13,0,0,1,.72-2.17,2.54,2.54,0,0,1,2-.81,2.32,2.32,0,0,1,1.83.74,2.86,2.86,0,0,1,.65,2c0,.06,0,.15,0,.29s0,.23,0,.29h-3.8a1.79,1.79,0,0,0,.44,1.24,1.51,1.51,0,0,0,1.15.44,3.61,3.61,0,0,0,1.8-.49l.19,1A3.8,3.8,0,0,1,453.84,303Zm-1.51-3.55h2.5a1.61,1.61,0,0,0-.32-1.07,1.1,1.1,0,0,0-.88-.37,1.2,1.2,0,0,0-.89.36A1.65,1.65,0,0,0,452.33,299.49Z" transform="translate(-286.09 -278.93)"/><path class="cls-2" d="M462.22,303a2.67,2.67,0,0,1-2-.78,3.14,3.14,0,0,1-.73-2.23,3,3,0,0,1,.77-2.18,2.72,2.72,0,0,1,2-.78,3.14,3.14,0,0,1,1.7.43l-.32,1a2.88,2.88,0,0,0-1.32-.37,1.32,1.32,0,0,0-1.09.49,2.25,2.25,0,0,0-.4,1.44,2.32,2.32,0,0,0,.39,1.46,1.33,1.33,0,0,0,1.11.5,2.63,2.63,0,0,0,1.44-.44l.13,1a2.58,2.58,0,0,1-.74.34A3.62,3.62,0,0,1,462.22,303Z" transform="translate(-286.09 -278.93)"/><path class="cls-2" d="M466.31,303a1.86,1.86,0,0,1-1.29-.44,1.61,1.61,0,0,1-.49-1.27,1.53,1.53,0,0,1,.58-1.32,3.57,3.57,0,0,1,1.76-.54l.35,0,.42,0,.37,0V299a1,1,0,0,0-.24-.76A1,1,0,0,0,467,298a5,5,0,0,0-1.72.39l-.17-.47-.17-.47a5.51,5.51,0,0,1,2.19-.43,2.37,2.37,0,0,1,1.68.5,2.17,2.17,0,0,1,.53,1.63v3.73h-1l-.11-.35c-.07-.22-.11-.33-.11-.35a3.25,3.25,0,0,1-.84.61A2.3,2.3,0,0,1,466.31,303Zm.37-1a1.49,1.49,0,0,0,.82-.23,1.33,1.33,0,0,0,.5-.55v-1.1l-.27,0-.28,0a2.83,2.83,0,0,0-1.21.31.84.84,0,0,0-.38.77.72.72,0,0,0,.21.56A.87.87,0,0,0,466.68,302.07Z" transform="translate(-286.09 -278.93)"/><path class="cls-2" d="M470.59,302.93v-5.72h1.1l.15.72a2.7,2.7,0,0,1,1.94-.86,1.87,1.87,0,0,1,1.5.57,2.48,2.48,0,0,1,.5,1.67v3.62H474.4v-3.45a2,2,0,0,0-.22-1,.86.86,0,0,0-.79-.34,1.51,1.51,0,0,0-.81.23,1.38,1.38,0,0,0-.54.57,5.71,5.71,0,0,0-.1,1.25v2.78Z" transform="translate(-286.09 -278.93)"/><path class="cls-2" d="M478.46,303a1.86,1.86,0,0,1-1.29-.44,1.61,1.61,0,0,1-.49-1.27,1.53,1.53,0,0,1,.58-1.32,3.57,3.57,0,0,1,1.76-.54l.35,0,.42,0,.37,0V299a1,1,0,0,0-.24-.76,1,1,0,0,0-.73-.24,5,5,0,0,0-1.72.39l-.17-.47-.17-.47a5.51,5.51,0,0,1,2.19-.43,2.37,2.37,0,0,1,1.68.5,2.17,2.17,0,0,1,.53,1.63v3.73h-1l-.11-.35c-.07-.22-.11-.33-.11-.35a3.29,3.29,0,0,1-.84.61A2.3,2.3,0,0,1,478.46,303Zm.37-1a1.49,1.49,0,0,0,.82-.23,1.32,1.32,0,0,0,.5-.55v-1.1l-.27,0-.28,0a2.83,2.83,0,0,0-1.21.31.83.83,0,0,0-.38.77.72.72,0,0,0,.21.56A.87.87,0,0,0,478.83,302.07Z" transform="translate(-286.09 -278.93)"/><path class="cls-2" d="M484.86,303a2.11,2.11,0,0,1-1.76-.82,3.49,3.49,0,0,1-.64-2.2,3.36,3.36,0,0,1,.64-2.14,2.11,2.11,0,0,1,1.76-.81,1.83,1.83,0,0,1,1.72.86,9.31,9.31,0,0,1-.05-1V295.1l1.36-.09v7.92h-1.18l-.15-.78-.16.24a1.7,1.7,0,0,1-.22.23,1.24,1.24,0,0,1-.31.21,2.08,2.08,0,0,1-.43.14A2.53,2.53,0,0,1,484.86,303Zm.32-1q1.37,0,1.4-1.87a2.63,2.63,0,0,0-.36-1.54,1.22,1.22,0,0,0-1.06-.48,1.17,1.17,0,0,0-1,.49,2.42,2.42,0,0,0-.37,1.45,2.44,2.44,0,0,0,.37,1.45A1.18,1.18,0,0,0,485.19,302Z" transform="translate(-286.09 -278.93)"/><path class="cls-2" d="M489.16,296.37v-1.16h1.37v1.16Zm0,6.55v-5.72h1.36v5.72Z" transform="translate(-286.09 -278.93)"/><path class="cls-2" d="M494.43,303a2.85,2.85,0,0,1-2.15-.79,3,3,0,0,1-.77-2.19,3.13,3.13,0,0,1,.72-2.17,2.53,2.53,0,0,1,2-.81,2.32,2.32,0,0,1,1.83.74,2.86,2.86,0,0,1,.65,2c0,.06,0,.15,0,.29s0,.23,0,.29h-3.8a1.8,1.8,0,0,0,.44,1.24,1.52,1.52,0,0,0,1.15.44,3.6,3.6,0,0,0,1.8-.49l.19,1A3.82,3.82,0,0,1,494.43,303Zm-1.51-3.55h2.5a1.61,1.61,0,0,0-.32-1.07,1.09,1.09,0,0,0-.88-.37,1.2,1.2,0,0,0-.89.36A1.65,1.65,0,0,0,492.91,299.49Z" transform="translate(-286.09 -278.93)"/><path class="cls-2" d="M497.64,302.93v-5.72h1.1l.15.72a2.71,2.71,0,0,1,1.94-.86,1.88,1.88,0,0,1,1.5.57,2.49,2.49,0,0,1,.5,1.67v3.62h-1.37v-3.45a2,2,0,0,0-.22-1,.86.86,0,0,0-.79-.34,1.52,1.52,0,0,0-.81.23,1.39,1.39,0,0,0-.53.57,5.69,5.69,0,0,0-.1,1.25v2.78Z" transform="translate(-286.09 -278.93)"/><path class="cls-2" d="M426.53,314.58a2.11,2.11,0,0,1-1.76-.82,3.49,3.49,0,0,1-.64-2.2,3.35,3.35,0,0,1,.64-2.14,2.11,2.11,0,0,1,1.76-.81,1.83,1.83,0,0,1,1.72.87,9.33,9.33,0,0,1-.05-1v-1.85l1.36-.09v7.92h-1.18l-.15-.78a2.56,2.56,0,0,1-.16.24,1.6,1.6,0,0,1-.22.23,1.28,1.28,0,0,1-.31.21,2.18,2.18,0,0,1-.43.14A2.47,2.47,0,0,1,426.53,314.58Zm.32-1q1.37,0,1.4-1.87a2.63,2.63,0,0,0-.36-1.54,1.22,1.22,0,0,0-1.06-.49,1.16,1.16,0,0,0-1,.49,2.42,2.42,0,0,0-.37,1.45,2.45,2.45,0,0,0,.37,1.45A1.18,1.18,0,0,0,426.85,313.55Z" transform="translate(-286.09 -278.93)"/><path class="cls-2" d="M433.43,314.58a2.84,2.84,0,0,1-2.15-.79,3,3,0,0,1-.77-2.19,3.13,3.13,0,0,1,.72-2.17,2.53,2.53,0,0,1,2-.81,2.32,2.32,0,0,1,1.83.74,2.86,2.86,0,0,1,.65,2c0,.06,0,.15,0,.28s0,.23,0,.29h-3.81a1.8,1.8,0,0,0,.44,1.24,1.52,1.52,0,0,0,1.15.44,3.6,3.6,0,0,0,1.8-.49l.19,1A3.83,3.83,0,0,1,433.43,314.58ZM431.92,311h2.5a1.62,1.62,0,0,0-.32-1.07,1.09,1.09,0,0,0-.88-.37,1.2,1.2,0,0,0-.89.36A1.65,1.65,0,0,0,431.92,311Z" transform="translate(-286.09 -278.93)"/><path class="cls-2" d="M439.31,314.47v-5.72h1.15l.18.88a1.81,1.81,0,0,1,1.63-.9l.37,0,0,1.14a3.14,3.14,0,0,0-.43,0,1.46,1.46,0,0,0-1.13.4,1.57,1.57,0,0,0-.37,1.11v3.1Z" transform="translate(-286.09 -278.93)"/><path class="cls-2" d="M444.77,314.58a1.87,1.87,0,0,1-1.29-.44,1.62,1.62,0,0,1-.49-1.27,1.53,1.53,0,0,1,.58-1.32,3.57,3.57,0,0,1,1.76-.54l.35,0,.42,0,.37,0v-.3a1,1,0,0,0-.24-.76,1,1,0,0,0-.73-.24,5,5,0,0,0-1.72.39l-.17-.47-.17-.47a5.51,5.51,0,0,1,2.19-.43,2.37,2.37,0,0,1,1.68.5,2.17,2.17,0,0,1,.53,1.63v3.73h-1l-.11-.35c-.07-.22-.11-.33-.11-.35a3.21,3.21,0,0,1-.83.61A2.28,2.28,0,0,1,444.77,314.58Zm.37-1a1.47,1.47,0,0,0,.82-.23,1.32,1.32,0,0,0,.5-.55v-1.1l-.27,0-.28,0a2.85,2.85,0,0,0-1.21.31.84.84,0,0,0-.38.77.71.71,0,0,0,.21.56A.87.87,0,0,0,445.14,313.62Z" transform="translate(-286.09 -278.93)"/><path class="cls-2" d="M449.34,316.88a6.56,6.56,0,0,1-.71,0l-.07-1.06c.16,0,.36,0,.61,0a1.15,1.15,0,0,0,1.23-.85l.21-.59-2.3-5.62h1.46l1.5,4.15c.11-.41.36-1.18.75-2.3l.64-1.85h1.46l-2.4,6.34a3,3,0,0,1-.93,1.38A2.39,2.39,0,0,1,449.34,316.88Z" transform="translate(-286.09 -278.93)"/><path class="cls-2" d="M457.1,314.58a2.54,2.54,0,0,1-2-.82,3.61,3.61,0,0,1,0-4.35,2.64,2.64,0,0,1,2.06-.8,2.56,2.56,0,0,1,2,.81,3.6,3.6,0,0,1,0,4.35A2.64,2.64,0,0,1,457.1,314.58Zm0-1a1.18,1.18,0,0,0,1-.51,3.16,3.16,0,0,0,0-2.9,1.34,1.34,0,0,0-2.09,0,2.53,2.53,0,0,0-.35,1.46,2.48,2.48,0,0,0,.36,1.44A1.2,1.2,0,0,0,457.14,313.55Z" transform="translate(-286.09 -278.93)"/><path class="cls-2" d="M460.84,314.47v-5.72h1.1l.15.72a2.71,2.71,0,0,1,1.94-.87,1.87,1.87,0,0,1,1.5.58,2.46,2.46,0,0,1,.5,1.67v3.62h-1.37V311a2,2,0,0,0-.22-1,.86.86,0,0,0-.79-.34,1.51,1.51,0,0,0-.81.23,1.38,1.38,0,0,0-.54.57,5.71,5.71,0,0,0-.1,1.25v2.79Z" transform="translate(-286.09 -278.93)"/><path class="cls-2" d="M467.21,314.47v-5.72h1.1l.15.72a2.71,2.71,0,0,1,1.94-.87,1.88,1.88,0,0,1,1.5.58,2.48,2.48,0,0,1,.5,1.67v3.62H471V311a2,2,0,0,0-.22-1,.86.86,0,0,0-.79-.34,1.52,1.52,0,0,0-.81.23,1.39,1.39,0,0,0-.53.57,5.68,5.68,0,0,0-.1,1.25v2.79Z" transform="translate(-286.09 -278.93)"/><path class="cls-2" d="M476.22,314.58a2.85,2.85,0,0,1-2.15-.79,3,3,0,0,1-.77-2.19,3.12,3.12,0,0,1,.72-2.17,2.54,2.54,0,0,1,2-.81,2.33,2.33,0,0,1,1.84.74,2.86,2.86,0,0,1,.65,2c0,.06,0,.15,0,.28s0,.23,0,.29h-3.8a1.79,1.79,0,0,0,.44,1.24,1.51,1.51,0,0,0,1.15.44,3.61,3.61,0,0,0,1.8-.49l.19,1A3.81,3.81,0,0,1,476.22,314.58ZM474.71,311h2.5a1.62,1.62,0,0,0-.32-1.07,1.1,1.1,0,0,0-.88-.37,1.2,1.2,0,0,0-.89.36A1.64,1.64,0,0,0,474.71,311Z" transform="translate(-286.09 -278.93)"/><path class="cls-2" d="M479.44,314.47v-5.72h1.1l.15.73.2-.23a2.15,2.15,0,0,1,.27-.23,1.86,1.86,0,0,1,.36-.21,2.39,2.39,0,0,1,.47-.14,3,3,0,0,1,.6-.06,1.92,1.92,0,0,1,1.09.28,1.58,1.58,0,0,1,.57.64,2,2,0,0,1,.8-.68,2.4,2.4,0,0,1,1.09-.24,1.77,1.77,0,0,1,1.45.56,2.53,2.53,0,0,1,.46,1.65v3.66h-1.37v-3.25a2.91,2.91,0,0,0-.18-1.21.71.71,0,0,0-.71-.37,1.18,1.18,0,0,0-1.15.72,2.62,2.62,0,0,0-.2.76v3.35h-1.36v-3.31a2.49,2.49,0,0,0-.2-1.14.76.76,0,0,0-.74-.37,1.26,1.26,0,0,0-.74.22,1.38,1.38,0,0,0-.47.57,5.59,5.59,0,0,0-.12,1.26v2.77Z" transform="translate(-286.09 -278.93)"/><path class="cls-2" d="M491.87,314.58a2.85,2.85,0,0,1-2.15-.79,3,3,0,0,1-.77-2.19,3.13,3.13,0,0,1,.72-2.17,2.54,2.54,0,0,1,2-.81,2.33,2.33,0,0,1,1.83.74,2.86,2.86,0,0,1,.65,2c0,.06,0,.15,0,.28s0,.23,0,.29h-3.8a1.79,1.79,0,0,0,.44,1.24,1.51,1.51,0,0,0,1.15.44,3.61,3.61,0,0,0,1.8-.49l.19,1A3.81,3.81,0,0,1,491.87,314.58ZM490.35,311h2.5a1.62,1.62,0,0,0-.32-1.07,1.1,1.1,0,0,0-.88-.37,1.2,1.2,0,0,0-.89.36A1.65,1.65,0,0,0,490.35,311Z" transform="translate(-286.09 -278.93)"/><path class="cls-2" d="M495.09,314.47v-5.72h1.1l.15.72a2.71,2.71,0,0,1,1.94-.87,1.87,1.87,0,0,1,1.5.58,2.47,2.47,0,0,1,.5,1.67v3.62H498.9V311a2,2,0,0,0-.22-1,.86.86,0,0,0-.79-.34,1.52,1.52,0,0,0-.81.23,1.39,1.39,0,0,0-.54.57,5.76,5.76,0,0,0-.1,1.25v2.79Z" transform="translate(-286.09 -278.93)"/><path class="cls-2" d="M503.74,314.55a2.89,2.89,0,0,1-1-.14,1.26,1.26,0,0,1-.61-.43,1.86,1.86,0,0,1-.31-.7,4.56,4.56,0,0,1-.09-1v-2.7h-.94l.05-.74,1-.09.44-1.55h.83v1.55h1.42v.83h-1.42v2.73a1.71,1.71,0,0,0,.19.93.78.78,0,0,0,.69.28,4.26,4.26,0,0,0,.64-.05l0,1-.13,0-.22,0-.27,0Z" transform="translate(-286.09 -278.93)"/><path class="cls-2" d="M426.23,326.12a4.07,4.07,0,0,1-2-.43l.14-1a4,4,0,0,0,.88.33,3.55,3.55,0,0,0,1,.15,1.24,1.24,0,0,0,.7-.17.57.57,0,0,0,.26-.5.55.55,0,0,0-.24-.47,4.42,4.42,0,0,0-.9-.43l-.3-.11a3.06,3.06,0,0,1-1.14-.69,1.45,1.45,0,0,1-.35-1,1.4,1.4,0,0,1,.56-1.2,2.61,2.61,0,0,1,1.57-.42,4.3,4.3,0,0,1,1.92.41l-.34.94a3.7,3.7,0,0,0-1.56-.38,1.24,1.24,0,0,0-.64.14.46.46,0,0,0-.23.42.47.47,0,0,0,.22.41,5.1,5.1,0,0,0,.88.39l.13,0,.18.07a2.9,2.9,0,0,1,1.15.69,1.45,1.45,0,0,1,.37,1,1.63,1.63,0,0,1-.58,1.33A2.54,2.54,0,0,1,426.23,326.12Z" transform="translate(-286.09 -278.93)"/><path class="cls-2" d="M429.67,328.43a6.56,6.56,0,0,1-.71,0l-.07-1.06a5.73,5.73,0,0,0,.61,0,1.37,1.37,0,0,0,.76-.19,1.35,1.35,0,0,0,.47-.67l.21-.59-2.3-5.62h1.46l1.5,4.15q.17-.62.75-2.3l.64-1.85h1.46l-2.4,6.34a3,3,0,0,1-.93,1.38A2.39,2.39,0,0,1,429.67,328.43Z" transform="translate(-286.09 -278.93)"/><path class="cls-2" d="M435,326V320.3h1.1l.15.72a2.7,2.7,0,0,1,1.94-.86,1.88,1.88,0,0,1,1.5.57,2.49,2.49,0,0,1,.5,1.67V326h-1.37v-3.45a2,2,0,0,0-.22-1,.86.86,0,0,0-.79-.34,1.52,1.52,0,0,0-.81.23,1.39,1.39,0,0,0-.53.57,5.77,5.77,0,0,0-.1,1.25V326Z" transform="translate(-286.09 -278.93)"/><path class="cls-2" d="M443.88,326.13a2.66,2.66,0,0,1-2-.78,3.14,3.14,0,0,1-.73-2.23,3,3,0,0,1,.77-2.18,2.72,2.72,0,0,1,2-.77,3.14,3.14,0,0,1,1.7.43l-.32,1a2.88,2.88,0,0,0-1.32-.37,1.32,1.32,0,0,0-1.09.49,2.26,2.26,0,0,0-.4,1.44,2.32,2.32,0,0,0,.39,1.46,1.33,1.33,0,0,0,1.11.5,2.66,2.66,0,0,0,1.44-.44l.13,1a2.56,2.56,0,0,1-.74.34A3.6,3.6,0,0,1,443.88,326.13Z" transform="translate(-286.09 -278.93)"/><path class="cls-2" d="M446.47,326v-7.83l1.36-.09v1.65q0,.12,0,.66c0,.36,0,.55,0,.55a2.27,2.27,0,0,1,1.83-.81,2,2,0,0,1,1.49.55,2.37,2.37,0,0,1,.53,1.69V326h-1.36v-3.47a1.88,1.88,0,0,0-.22-1,.86.86,0,0,0-.76-.33,1.45,1.45,0,0,0-.81.23,1.48,1.48,0,0,0-.53.6,5.16,5.16,0,0,0-.12,1.25V326Z" transform="translate(-286.09 -278.93)"/><path class="cls-2" d="M452.83,326V320.3H454l.18.88a1.81,1.81,0,0,1,1.63-.9l.36,0,0,1.14a3,3,0,0,0-.43,0,1.47,1.47,0,0,0-1.12.4,1.57,1.57,0,0,0-.37,1.11V326Z" transform="translate(-286.09 -278.93)"/><path class="cls-2" d="M459.23,326.13a2.53,2.53,0,0,1-2-.82,3.61,3.61,0,0,1,0-4.35,2.64,2.64,0,0,1,2.06-.8,2.55,2.55,0,0,1,2,.81,3.6,3.6,0,0,1,0,4.35A2.64,2.64,0,0,1,459.23,326.13Zm0-1a1.18,1.18,0,0,0,1-.5,3.19,3.19,0,0,0,0-2.9,1.34,1.34,0,0,0-2.09,0,3.16,3.16,0,0,0,0,2.9A1.2,1.2,0,0,0,459.26,325.09Z" transform="translate(-286.09 -278.93)"/><path class="cls-2" d="M465.25,326.1a3,3,0,0,1-1-.14,1.24,1.24,0,0,1-.61-.43,1.83,1.83,0,0,1-.31-.7,4.57,4.57,0,0,1-.09-1v-2.7h-.94l.05-.74,1-.09.44-1.55h.83v1.56h1.42v.83h-1.42v2.73a1.69,1.69,0,0,0,.19.92.77.77,0,0,0,.69.28,4.25,4.25,0,0,0,.63,0l0,1-.13,0-.22,0-.27,0Z" transform="translate(-286.09 -278.93)"/><path class="cls-2" d="M467,326V320.3h1.15l.18.88a1.81,1.81,0,0,1,1.63-.9l.36,0,0,1.14a3,3,0,0,0-.43,0,1.47,1.47,0,0,0-1.12.4,1.57,1.57,0,0,0-.37,1.11V326Z" transform="translate(-286.09 -278.93)"/><path class="cls-2" d="M473.39,326.13a2.53,2.53,0,0,1-2-.82,3.61,3.61,0,0,1,0-4.35,2.65,2.65,0,0,1,2.06-.8,2.55,2.55,0,0,1,2,.81,3.6,3.6,0,0,1,0,4.35A2.64,2.64,0,0,1,473.39,326.13Zm0-1a1.18,1.18,0,0,0,1-.5,3.19,3.19,0,0,0,0-2.9,1.34,1.34,0,0,0-2.1,0,3.15,3.15,0,0,0,0,2.9A1.2,1.2,0,0,0,473.42,325.09Z" transform="translate(-286.09 -278.93)"/><path class="cls-2" d="M477.13,326V320.3h1.1l.15.72a2.7,2.7,0,0,1,1.94-.86,1.88,1.88,0,0,1,1.5.57,2.49,2.49,0,0,1,.5,1.67V326h-1.37v-3.45a2,2,0,0,0-.22-1,.86.86,0,0,0-.79-.34,1.52,1.52,0,0,0-.81.23,1.39,1.39,0,0,0-.53.57,5.7,5.7,0,0,0-.1,1.25V326Z" transform="translate(-286.09 -278.93)"/></svg>